<svg width="142" height="81" viewBox="0 0 142 81" fill="none" xmlns="http://www.w3.org/2000/svg">
<g filter="url(#filter0_d)">
<path d="M71.3704 46.0845V5.04956H114.704V22.1604H90.174V26.5736C90.174 29.7378 92.7377 32.303 95.9002 32.303H114.704V51.8139V55.9949V72.9508H77.0966C73.9341 72.9508 71.3704 70.3857 71.3704 67.2214V55.9949H114.704V51.8139C114.704 48.6497 112.14 46.0845 108.978 46.0845H71.3704Z" fill="white"/>
</g>
<g filter="url(#filter1_d)">
<path d="M8.6543 67.0666V5.04956H29.1377V22.7798C29.1377 26.0295 31.7678 28.664 35.0122 28.664H49.6212V5.04956H64.3847C67.6291 5.04956 70.2592 7.68403 70.2592 10.9338V72.9508H49.6212V55.1432C49.6212 51.8934 46.9911 49.2589 43.7467 49.2589H29.1377V72.9508H14.5288C11.2844 72.9508 8.6543 70.3163 8.6543 67.0666Z" fill="white"/>
</g>
<g filter="url(#filter2_d)">
<path d="M114.704 55.9949V46.0845V32.303H133.346V72.9508H114.704V55.9949Z" fill="#860002"/>
<path d="M133.346 10.779V22.1604H114.704V5.04956H127.598C130.772 5.04956 133.346 7.6147 133.346 10.779Z" fill="#860002"/>
</g>
<defs>
<filter id="filter0_d" x="67.3704" y="5.04956" width="51.3334" height="75.9013" filterUnits="userSpaceOnUse" color-interpolation-filters="sRGB">
<feFlood flood-opacity="0" result="BackgroundImageFix"/>
<feColorMatrix in="SourceAlpha" type="matrix" values="0 0 0 0 0 0 0 0 0 0 0 0 0 0 0 0 0 0 127 0" result="hardAlpha"/>
<feOffset dy="4"/>
<feGaussianBlur stdDeviation="2"/>
<feComposite in2="hardAlpha" operator="out"/>
<feColorMatrix type="matrix" values="0 0 0 0 0 0 0 0 0 0 0 0 0 0 0 0 0 0 0.25 0"/>
<feBlend mode="normal" in2="BackgroundImageFix" result="effect1_dropShadow"/>
<feBlend mode="normal" in="SourceGraphic" in2="effect1_dropShadow" result="shape"/>
</filter>
<filter id="filter1_d" x="4.6543" y="5.04956" width="69.6049" height="75.9013" filterUnits="userSpaceOnUse" color-interpolation-filters="sRGB">
<feFlood flood-opacity="0" result="BackgroundImageFix"/>
<feColorMatrix in="SourceAlpha" type="matrix" values="0 0 0 0 0 0 0 0 0 0 0 0 0 0 0 0 0 0 127 0" result="hardAlpha"/>
<feOffset dy="4"/>
<feGaussianBlur stdDeviation="2"/>
<feComposite in2="hardAlpha" operator="out"/>
<feColorMatrix type="matrix" values="0 0 0 0 0 0 0 0 0 0 0 0 0 0 0 0 0 0 0.25 0"/>
<feBlend mode="normal" in2="BackgroundImageFix" result="effect1_dropShadow"/>
<feBlend mode="normal" in="SourceGraphic" in2="effect1_dropShadow" result="shape"/>
</filter>
<filter id="filter2_d" x="110.704" y="5.04956" width="26.6419" height="75.9013" filterUnits="userSpaceOnUse" color-interpolation-filters="sRGB">
<feFlood flood-opacity="0" result="BackgroundImageFix"/>
<feColorMatrix in="SourceAlpha" type="matrix" values="0 0 0 0 0 0 0 0 0 0 0 0 0 0 0 0 0 0 127 0" result="hardAlpha"/>
<feOffset dy="4"/>
<feGaussianBlur stdDeviation="2"/>
<feComposite in2="hardAlpha" operator="out"/>
<feColorMatrix type="matrix" values="0 0 0 0 0 0 0 0 0 0 0 0 0 0 0 0 0 0 0.25 0"/>
<feBlend mode="normal" in2="BackgroundImageFix" result="effect1_dropShadow"/>
<feBlend mode="normal" in="SourceGraphic" in2="effect1_dropShadow" result="shape"/>
</filter>
</defs>
</svg>
